# xmcd CD database file
#
# Track frame offsets:
#	182
#	22427
#	38182
#	56105
#	70280
#	85150
#	101547
#	117807
#	131982
#	146590
#	166672
#	177907
#
# Disc length: 2641 seconds
#
# Revision: 2
# Processed by: cddbd v1.5.2PL0 Copyright (c) Steve Scherf et al.
# Submitted via: CDex 1.70beta2
#
DISCID=ac0a4f0c
DTITLE=Steve Forbert - Rocking Horse Head
DYEAR=1996
DGENRE=Folk-Rock
TTITLE0=If I Want You Now
TTITLE1=My Time Ain't Long
TTITLE2=Shaky Ground
TTITLE3=Dear Lord
TTITLE4=Moon Man (I'm Waiting On You)
TTITLE5=Don't Stop
TTITLE6=Some Will Rake The Coals
TTITLE7=I Know What I Know
TTITLE8=Good Planets Are Hard To Find
TTITLE9=Big New World
TTITLE10=Open House
TTITLE11=Dream Dream
EXTD=YEAR: 1996
EXTT0=
EXTT1=
EXTT2=
EXTT3=
EXTT4=
EXTT5=
EXTT6=
EXTT7=
EXTT8=
EXTT9=
EXTT10=
EXTT11=
PLAYORDER=
